HIERARCHY
ROOT Hips
{
	OFFSET	0.00	0.00	0.00
	CHANNELS 6 Xposition Yposition Zposition Zrotation Xrotation Yrotation
	JOINT LeftUpLeg
	{
		OFFSET	 0.126116	-0.065224	 0.014019
		CHANNELS 3 Zrotation Xrotation Yrotation
		JOINT LeftLeg
		{
			OFFSET	 0.000000	 0.569914	 0.000000
			CHANNELS 3 Zrotation Xrotation Yrotation
			JOINT LeftFoot
			{
				OFFSET	 0.000000	 0.544423	 0.000000
				CHANNELS 3 Zrotation Xrotation Yrotation
				JOINT LeftToeBase
				{
					OFFSET	 0.000000	 0.207117	 0.000000
					CHANNELS 3 Zrotation Xrotation Yrotation
					End Site
					{
						OFFSET	 0.000000	 0.207117	 0.000000
					}
				}
			}
		}
	}
	JOINT RightUpLeg
	{
		OFFSET	-0.124023	-0.065224	 0.008373
		CHANNELS 3 Zrotation Xrotation Yrotation
		JOINT RightLeg
		{
			OFFSET	 0.000000	 0.570047	 0.000000
			CHANNELS 3 Zrotation Xrotation Yrotation
			JOINT RightFoot
			{
				OFFSET	 0.000000	 0.544354	 0.000000
				CHANNELS 3 Zrotation Xrotation Yrotation
				JOINT RightToeBase
				{
					OFFSET	 0.000000	 0.207540	 0.000000
					CHANNELS 3 Zrotation Xrotation Yrotation
					End Site
					{
						OFFSET	 0.000000	 0.207540	 0.000000
					}
				}
			}
		}
	}
	JOINT Spine
	{
		OFFSET	 0.000184	 0.117403	 0.007763
		CHANNELS 3 Zrotation Xrotation Yrotation
		JOINT Spine1
		{
			OFFSET	 0.000000	 0.137269	 0.000000
			CHANNELS 3 Zrotation Xrotation Yrotation
			JOINT Spine2
			{
				OFFSET	 0.000000	 0.156879	 0.000000
				CHANNELS 3 Zrotation Xrotation Yrotation
				JOINT LeftShoulder
				{
					OFFSET	 0.080501	 0.160143	 0.002496
					CHANNELS 3 Zrotation Xrotation Yrotation
					JOINT LeftArm
					{
						OFFSET	 0.000000	 0.164363	 0.000000
						CHANNELS 3 Zrotation Xrotation Yrotation
						JOINT LeftForeArm
						{
							OFFSET	 0.000000	 0.364576	 0.000000
							CHANNELS 3 Zrotation Xrotation Yrotation
							JOINT LeftHand
							{
								OFFSET	 0.000000	 0.360812	 0.000000
								CHANNELS 3 Zrotation Xrotation Yrotation
								JOINT LeftHandIndex1
								{
									OFFSET	 0.000000	 0.086006	 0.000000
									CHANNELS 3 Zrotation Xrotation Yrotation
									JOINT LeftHandIndex2
									{
										OFFSET	 0.000000	 0.047237	 0.000000
										CHANNELS 3 Zrotation Xrotation Yrotation
										JOINT LeftHandIndex3
										{
											OFFSET	-0.004284	 0.038165	 0.000551
											CHANNELS 3 Zrotation Xrotation Yrotation
											End Site
											{
												OFFSET	-0.004284	 0.038165	 0.000551
											}
										}
									}
								}
							}
						}
					}
				}
				JOINT Neck
				{
					OFFSET	 0.000000	 0.176489	 0.000000
					CHANNELS 3 Zrotation Xrotation Yrotation
					JOINT Head
					{
						OFFSET	 0.000000	 0.077941	 0.001747
						CHANNELS 3 Zrotation Xrotation Yrotation
						End Site
						{
							OFFSET	 0.000000	 0.077941	 0.001747
						}
					}
				}
				JOINT RightShoulder
				{
					OFFSET	-0.080363	 0.159706	-0.000306
					CHANNELS 3 Zrotation Xrotation Yrotation
					JOINT RightArm
					{
						OFFSET	 0.000000	 0.164196	 0.000000
						CHANNELS 3 Zrotation Xrotation Yrotation
						JOINT RightForeArm
						{
							OFFSET	 0.000000	 0.365611	 0.000000
							CHANNELS 3 Zrotation Xrotation Yrotation
							JOINT RightHand
							{
								OFFSET	 0.000000	 0.360648	 0.000000
								CHANNELS 3 Zrotation Xrotation Yrotation
								JOINT RightHandIndex1
								{
									OFFSET	 0.000000	 0.069977	 0.000000
									CHANNELS 3 Zrotation Xrotation Yrotation
									JOINT RightHandIndex2
									{
										OFFSET	 0.000000	 0.052305	 0.000000
										CHANNELS 3 Zrotation Xrotation Yrotation
										JOINT RightHandIndex3
										{
											OFFSET	 0.009002	 0.042196	 0.000782
											CHANNELS 3 Zrotation Xrotation Yrotation
											End Site
											{
												OFFSET	 0.009002	 0.042196	 0.000782
											}
										}
									}
								}
							}
						}
					}
				}
			}
		}
	}
}
MOTION
Frames:    9
Frame Time: 0.03333334
 0.436528	 1.273934	 0.407007	 0.577878	-2.457036	-177.243700	-178.961900	 6.970638	-13.399800	 3.489976	-12.906160	 6.006693	 5.511462	 69.777430	-1.676905	 1.292262	 28.425850	-2.713146	 176.505500	 7.646816	 15.036850	-2.020218	-10.393060	 0.816858	 0.376616	 66.041040	-5.705210	-1.288183	 28.361890	 2.710176	 1.054186	 6.350594	 7.231815	-2.261615	-6.090235	 3.608928	 2.553990	 7.061105	-11.907740	-117.567300	-0.812869	 89.943730	 33.240120	 2.888944	-6.724606	 4.485595	-0.219731	 34.161070	 9.896254	-12.003990	 9.215894	-6.580301	 5.266122	 0.000000	 0.000000	 0.000000	 0.000000	 0.000000	 0.000000	 0.000000	 4.870298	 27.352740	 1.650574	-4.221532	-17.019620	-2.977074	 116.458200	-0.487260	-90.552890	-11.923060	-4.560283	 22.515110	-5.223022	 0.313763	-56.717740	 14.819500	 0.782335	 20.356880	 15.208500	 5.323790	 0.000000	 0.000000	 0.000000	 0.000000	 0.000000	 0.000000	 0.000000
 0.450777	 1.251037	 0.527124	 2.439496	-22.921460	-172.298800	-179.277000	 40.368870	-16.545840	 6.251140	-22.287460	 15.244910	 35.261100	 63.240890	-23.241930	 1.292262	 28.425850	-2.713146	 171.081900	 39.811260	 29.291000	-4.253458	-21.100520	-4.573565	-27.382390	 64.714040	 12.473130	-1.288183	 28.361890	 2.710176	 8.078567	 6.906332	-29.312530	 1.381481	 1.387155	 3.993763	 0.888383	 11.081240	-14.314080	-121.663900	 11.624040	 96.189250	 62.697960	 15.023060	-2.333930	 28.471200	 8.604286	-10.578100	 23.418510	-7.587788	-13.459560	-6.580301	 5.266122	 0.000000	 0.000000	 0.000000	 0.000000	 0.000000	 0.000000	 0.000000	 6.899928	 34.622230	-2.441208	-3.209050	-27.389330	-3.437492	 124.778200	 10.846430	-96.831630	-16.493620	 26.591080	 9.357940	-78.877860	 17.092690	-6.310167	 38.285770	-15.956200	 34.616570	 15.208500	 5.323790	 0.000000	 0.000000	 0.000000	 0.000000	 0.000000	 0.000000	 0.000000
 0.455415	 1.241328	 0.551416	 2.048561	-26.497770	-172.350500	 179.884600	 46.644210	-15.440880	 6.858526	-24.204760	 16.849150	 38.783230	 61.818470	-25.728720	 1.292262	 28.425850	-2.713146	 169.431800	 46.655700	 28.517530	-4.880626	-23.876460	-6.430356	-33.247500	 63.081740	 17.148530	-1.288183	 28.361890	 2.710176	 8.618142	 6.972327	-30.703250	 2.391037	 2.696924	 4.193479	 0.220304	 10.952900	-14.325820	-118.865300	 14.569700	 97.202570	 68.182850	 13.437570	-4.392290	 32.227380	 9.643969	-16.009530	 26.687730	-11.564790	-20.160440	-6.580301	 5.266122	 0.000000	 0.000000	 0.000000	 0.000000	 0.000000	 0.000000	 0.000000	 6.332847	 32.854730	-2.690715	-2.999441	-28.996450	-3.692648	 122.763900	 14.105450	-98.190060	-22.837840	 27.941030	 12.042430	-82.401280	 18.126850	 1.964199	 39.207230	-25.726050	 39.933730	 15.208500	 5.323790	 0.000000	 0.000000	 0.000000	 0.000000	 0.000000	 0.000000	 0.000000
 0.460761	 1.224670	 0.571609	-0.117975	-29.956460	-173.247300	 176.509600	 52.367560	-13.247280	 7.833602	-27.160170	 19.136090	 44.283270	 61.352780	-30.498800	 1.292262	 28.425850	-2.713146	 164.106100	 54.158520	 29.629810	-6.523112	-30.585220	-12.382790	-45.094220	 60.430600	 29.569540	-1.288183	 28.361890	 2.710176	 8.878503	 7.676107	-29.612660	 2.921555	 5.447807	 4.339457	-0.892948	 10.397510	-14.581950	-120.700600	 17.601560	 99.015170	 71.937130	 10.137860	-3.344544	 36.150070	 10.018470	-22.352960	 28.133730	-15.292740	-25.626830	-6.580301	 5.266122	 0.000000	 0.000000	 0.000000	 0.000000	 0.000000	 0.000000	 0.000000	 5.238433	 35.912130	-3.190658	-1.905422	-34.798500	-4.016978	 123.723100	 18.083540	-100.459400	-26.780520	 23.328370	 13.028320	-84.518910	 18.502430	 10.561880	 40.437220	-33.417440	 44.416150	 15.208500	 5.323790	 0.000000	 0.000000	 0.000000	 0.000000	 0.000000	 0.000000	 0.000000
 0.468965	 1.195738	 0.588312	-2.732413	-33.937350	-173.916100	 171.027100	 60.626610	-9.031269	 10.035060	-33.261640	 22.374040	 51.087250	 61.182180	-37.046120	 1.292262	 28.425850	-2.713146	 155.406500	 63.426690	 33.408980	-9.073253	-39.367310	-18.025270	-54.227770	 57.353480	 39.387730	-1.288183	 28.361890	 2.710176	 8.629145	 8.817749	-25.975320	 4.238155	 10.355570	 3.602731	-2.767913	 9.040236	-14.666050	-121.064500	 20.386820	 100.486400	 76.269990	 6.090036	-1.998394	 39.638400	 10.236900	-27.913060	 27.160070	-19.710490	-30.406150	-6.580301	 5.266122	 0.000000	 0.000000	 0.000000	 0.000000	 0.000000	 0.000000	 0.000000	 7.279151	 39.152610	-4.321452	-2.487507	-40.716270	-3.852324	 127.858300	 22.573620	-103.979600	-32.822480	 15.562360	 14.069990	-84.643780	 18.048090	 18.750430	 39.696960	-40.371040	 45.050360	 15.208500	 5.323790	 0.000000	 0.000000	 0.000000	 0.000000	 0.000000	 0.000000	 0.000000
 0.474349	 1.156927	 0.596206	-5.372031	-36.900630	-175.041300	 163.932400	 68.698080	-3.038620	 13.822480	-41.965940	 25.417750	 58.720010	 62.390860	-44.874450	 1.292262	 28.425850	-2.713146	 142.702500	 71.525870	 41.888660	-12.631740	-48.686910	-21.610370	-59.599960	 56.874040	 45.059020	-1.288183	 28.361890	 2.710176	 7.225411	 10.769860	-18.377820	 2.851744	 10.584320	 2.794965	-3.605560	 9.164953	-14.891460	-125.853900	 24.661430	 104.024000	 74.706470	 3.633491	 6.716708	 43.520240	 6.020771	-38.140090	 27.234910	-20.725810	-31.992000	-6.580301	 5.266122	 0.000000	 0.000000	 0.000000	 0.000000	 0.000000	 0.000000	 0.000000	 8.633798	 41.102960	-4.660434	-3.604786	-45.120560	-3.928440	 130.581600	 25.719100	-106.686900	-37.362000	 8.589265	 12.629380	-87.152160	 15.847760	 27.857130	 37.833920	-45.520240	 43.637990	 15.208500	 5.323790	 0.000000	 0.000000	 0.000000	 0.000000	 0.000000	 0.000000	 0.000000
 0.478794	 1.097551	 0.602809	-6.617852	-38.375850	-175.834400	 152.423900	 77.562640	 8.367934	 21.683790	-54.283890	 31.065070	 69.007510	 64.624890	-55.785560	 1.292262	 28.425850	-2.713146	 121.273200	 78.863910	 60.852360	-19.629760	-60.224170	-27.468090	-66.474400	 58.019730	 52.804530	-1.288183	 28.361890	 2.710176	 5.008486	 12.539490	-7.765000	 2.775663	 11.808920	 1.955235	-4.354441	 8.918535	-15.056320	-126.477300	 27.366500	 105.744000	 74.544700	 2.216409	 10.371950	 45.555820	-4.830839	-52.927250	 25.433200	-12.927560	-31.331130	-6.580301	 5.266122	 0.000000	 0.000000	 0.000000	 0.000000	 0.000000	 0.000000	 0.000000	 9.896435	 41.989550	-4.879275	-4.831467	-47.392270	-4.055343	 129.836100	 27.568400	-107.538400	-43.347310	 3.832791	 11.989080	-87.285400	 14.005540	 33.382050	 37.378680	-46.509510	 43.288620	 15.208500	 5.323790	 0.000000	 0.000000	 0.000000	 0.000000	 0.000000	 0.000000	 0.000000
 0.443297	 1.229231	 0.551647	-0.931274	-14.220340	-174.200900	 179.133500	 35.968350	-18.972120	 8.678992	-29.597260	 16.269230	 37.722880	 66.905130	-28.752960	 1.292262	 28.425850	-2.713146	 167.559200	 37.217430	 29.991230	-6.598136	-30.871730	-10.279370	-34.118550	 64.919780	 23.524690	-1.288183	 28.361890	 2.710176	 1.288059	 4.909502	 8.751603	 0.334628	 7.584005	 3.822096	 0.489569	-6.638194	-15.973060	-119.148000	 13.831360	 96.897130	 70.091550	 45.580120	-1.773459	 5.982163	-1.318351	-24.922160	 54.166180	 8.762489	 0.495291	-6.580301	 5.266122	 0.000000	 0.000000	 0.000000	 0.000000	 0.000000	 0.000000	 0.000000	-1.359131	-0.355070	-1.366779	 0.308113	-10.536260	-4.457363	 124.206800	 13.545570	-98.168690	-36.045800	 18.965800	-0.084138	-82.794210	 1.726850	-12.591540	 26.560850	-41.068450	 9.282780	 15.208500	 5.323790	 0.000000	 0.000000	 0.000000	 0.000000	 0.000000	 0.000000	 0.000000
 0.447261	 1.255273	 0.508853	-0.321441	-10.237690	-174.424700	-179.331700	 25.037400	-20.656250	 6.048319	-21.634570	 11.386120	 23.518100	 67.487020	-16.065200	 1.292262	 28.425850	-2.713146	 171.243700	 26.120430	 29.448220	-4.477296	-22.104250	-3.654202	-16.900870	 66.373540	 6.924139	-1.288183	 28.361890	 2.710176	 1.832179	 2.755919	-9.803883	-1.321148	 5.230973	 4.138211	 1.337312	-6.934599	-16.073550	-119.722500	 9.348662	 94.826610	 64.209170	 54.480940	 5.205194	 16.041730	-5.094170	-6.621305	 62.172410	 5.877477	 12.761930	-6.580301	 5.266122	 0.000000	 0.000000	 0.000000	 0.000000	 0.000000	 0.000000	 0.000000	 0.025868	 4.264843	-1.852879	 0.049998	-10.006750	-4.344895	 124.619500	 9.364142	-96.018460	-36.201130	 22.424700	 2.904620	-97.302510	 4.230962	-27.305770	 27.544470	-36.927910	 0.829985	 15.208500	 5.323790	 0.000000	 0.000000	 0.000000	 0.000000	 0.000000	 0.000000	 0.000000
